<svg xmlns="http://www.w3.org/2000/svg" viewBox="0 0 180 180">
  <defs>
    <linearGradient id="g" x1="0%" y1="0%" x2="100%" y2="100%">
      <stop offset="0%" stop-color="#e11d48"/>
      <stop offset="100%" stop-color="#f59e0b"/>
    </linearGradient>
  </defs>
  <rect width="180" height="180" rx="40" fill="#09090b"/>
  <path d="M90 148c-3 0-6-1-8-3C42 113 27 94 27 75c0-18 13-31 30-31 10 0 20 6 25 14 6-8 16-14 26-14 16 0 29 13 29 31 0 19-15 38-47 70-2 2-5 3-8 3z" fill="url(#g)" transform="translate(2,2)"/>
  <circle cx="132" cy="50" r="3" fill="#f59e0b"/>
  <circle cx="140" cy="42" r="2" fill="#fb923c"/>
  <circle cx="127" cy="40" r="1.5" fill="#fbbf24"/>
</svg>
